<svg
        width="100%"
        height="auto"
        viewBox="0 0 1226 84"
        fill="none"
        xmlns="http://www.w3.org/2000/svg"
>
    <path
            fill-rule="evenodd"
            clip-rule="evenodd"
            d="M1226 5.71136C1226 6.67862 1225.75 7.63003 1225.29 8.47637L1219.19 19.5L6.81314 19.5L0.713923 8.47637C0.245653 7.63003 0 6.67862 0 5.71136C0 2.55707 2.55707 0 5.71136 0H1220.29C1223.44 0 1226 2.55706 1226 5.71136ZM14.0058 32.5L1211.99 32.5L1206.46 42.5L19.5387 42.5L14.0058 32.5ZM26.7314 55.5L32.2642 65.5L1193.74 65.5L1199.27 55.5L26.7314 55.5ZM39.8573 77.5L1186.14 77.5C1182.07 81.6026 1176.47 84 1170.53 84H55.4706C49.5266 84 43.9308 81.6026 39.8573 77.5Z"
            fill="#2EF867"
    />
    <rect width="1226" height="6" fill="#2EF867" />
</svg>