<svg width="21" height="21" viewBox="0 0 21 21" fill="none" xmlns="http://www.w3.org/2000/svg">
    <path d="M12.8098 5.42828C13.6217 5.42828 14.2798 4.77014 14.2798 3.95828C14.2798 3.14642 13.6217 2.48828 12.8098 2.48828C11.998 2.48828 11.3398 3.14642 11.3398 3.95828C11.3398 4.77014 11.998 5.42828 12.8098 5.42828Z" fill="white"/>
    <path d="M0 0V21H21V0H0ZM16.38 18.27L14.49 20.16H13.02L14.7 18.48H12.6L10.92 20.16H3.15L5.04 18.27V15.12H8.82L10.185 11.7936L13.02 18.06H15.12L11.76 10.5L12.6 7.98L13.86 9.66H16.38V18.27ZM16.38 8.4H14.7L13.02 5.88H7.14L5.98878 8.54784L7.14567 9.04701L7.97307 7.1295L7.98 7.14H9.66L8.505 9.6936L7.56 13.44H5.04V1.89H16.38V8.4Z" fill="white"/>
</svg>
