<svg width="28" height="28" viewBox="0 0 28 28" fill="none" xmlns="http://www.w3.org/2000/svg">
    <g clip-path="url(#clip0_651_801)">
        <path d="M4.6665 24.2065C4.43453 24.2062 4.21215 24.1139 4.04813 23.9499C3.8841 23.7859 3.79181 23.5635 3.7915 23.3315V18.4537C3.79234 18.2218 3.88457 17.9997 4.04817 17.8354L17.1627 4.7232C17.4574 4.42829 17.8073 4.19435 18.1924 4.03474C18.5776 3.87512 18.9904 3.79297 19.4073 3.79297C19.8243 3.79297 20.2371 3.87512 20.6222 4.03474C21.0074 4.19435 21.3573 4.42829 21.652 4.7232L23.2748 6.34603C23.5697 6.64073 23.8037 6.99065 23.9633 7.37581C24.1229 7.76096 24.2051 8.17378 24.2051 8.5907C24.2051 9.00761 24.1229 9.42044 23.9633 9.80559C23.8037 10.1907 23.5697 10.5407 23.2748 10.8354L10.1638 23.9499C10.0826 24.0314 9.98609 24.0961 9.87976 24.1402C9.77343 24.1842 9.65943 24.2068 9.54434 24.2065H4.6665ZM5.5415 18.8154V22.4565H9.1815L18.4098 13.2282L14.7698 9.5882L5.5415 18.8154ZM19.6477 11.9915L22.0405 9.5987C22.3072 9.33124 22.4569 8.96896 22.4569 8.59128C22.4569 8.2136 22.3072 7.85132 22.0405 7.58386L20.4153 5.95753C20.148 5.69058 19.7857 5.54064 19.4079 5.54064C19.0301 5.54064 18.6678 5.69058 18.4005 5.95753L16.0065 8.35153L19.6477 11.9915Z" fill="white"/>
    </g>
    <defs>
        <clipPath id="clip0_651_801">
            <rect width="28" height="28" fill="white"/>
        </clipPath>
    </defs>
</svg>
