<svg
        width="139"
        height="16"
        viewBox="0 0 139 16"
        fill="none"
        xmlns="http://www.w3.org/2000/svg"
>
    <mask id="path-1-inside-1_387_937" fill="white">
        <path d="M8.52 5.28C8.52 4.72 8.3 4.23333 7.86 3.82C7.43333 3.40667 6.82667 3.2 6.04 3.2C5.37333 3.2 4.84667 3.34 4.46 3.62C4.07333 3.88667 3.88 4.25333 3.88 4.72C3.88 4.96 3.92667 5.18 4.02 5.38C4.11333 5.56667 4.27333 5.74 4.5 5.9C4.74 6.04667 5.04667 6.18 5.42 6.3C5.80667 6.42 6.29333 6.53333 6.88 6.64C8.34667 6.90667 9.46667 7.35333 10.24 7.98C11.0133 8.60667 11.4 9.53333 11.4 10.76V11C11.4 11.6533 11.28 12.2467 11.04 12.78C10.8133 13.3 10.48 13.7467 10.04 14.12C9.6 14.4933 9.06667 14.78 8.44 14.98C7.81333 15.18 7.10667 15.28 6.32 15.28C5.4 15.28 4.58667 15.1533 3.88 14.9C3.18667 14.6333 2.60667 14.2733 2.14 13.82C1.67333 13.3533 1.32 12.8133 1.08 12.2C0.84 11.5733 0.72 10.8933 0.72 10.16V9.56H3.36V10.04C3.36 10.88 3.6 11.5533 4.08 12.06C4.57333 12.5533 5.33333 12.8 6.36 12.8C7.16 12.8 7.75333 12.6267 8.14 12.28C8.52667 11.9333 8.72 11.52 8.72 11.04C8.72 10.8133 8.68 10.6 8.6 10.4C8.52 10.1867 8.38 10 8.18 9.84C7.98 9.66667 7.70667 9.51333 7.36 9.38C7.01333 9.24667 6.57333 9.13333 6.04 9.04C5.33333 8.92 4.68667 8.76667 4.1 8.58C3.51333 8.38 3 8.12 2.56 7.8C2.13333 7.48 1.8 7.08 1.56 6.6C1.32 6.12 1.2 5.53333 1.2 4.84V4.72C1.2 4.14667 1.31333 3.62 1.54 3.14C1.78 2.64667 2.10667 2.22 2.52 1.86C2.94667 1.5 3.45333 1.22 4.04 1.02C4.64 0.819999 5.30667 0.719999 6.04 0.719999C6.86667 0.719999 7.6 0.839999 8.24 1.08C8.88 1.30667 9.41333 1.62 9.84 2.02C10.28 2.42 10.6067 2.88 10.82 3.4C11.0467 3.92 11.16 4.46667 11.16 5.04V5.76H8.52V5.28ZM14.6861 0.999999H19.3261L20.1261 11.52V13.56H20.6061V11.52L21.4061 0.999999H26.0461V15H23.6461V5.64L23.8861 2.44H23.4061L22.3661 15H18.4061L17.3261 2.44H16.8461L17.0861 5.64V15H14.6861V0.999999ZM29.9322 0.999999H39.2922V3.52H35.9322V12.48H39.2922V15H29.9322V12.48H33.2922V3.52H29.9322V0.999999ZM44.3783 0.999999H47.0183V12.48H53.3783V15H44.3783V0.999999ZM58.6244 0.999999H67.4644V3.52H61.2644V6.72H67.2244V9.24H61.2644V12.48H67.7044V15H58.6244V0.999999ZM76.0305 10.08H75.4305L71.4105 0.999999H74.2905L77.1705 7.68H77.5305L80.4105 0.999999H83.2905L79.2705 10.08H78.6705V15H76.0305V10.08ZM86.3966 12.48H87.7166V3.52H86.3966V0.999999H92.5366C93.2032 0.999999 93.7899 1.09333 94.2966 1.28C94.8166 1.46667 95.2499 1.72 95.5966 2.04C95.9566 2.36 96.2232 2.74667 96.3966 3.2C96.5832 3.64 96.6766 4.12 96.6766 4.64V4.88C96.6766 5.68 96.4499 6.32 95.9966 6.8C95.5566 7.28 94.9966 7.61333 94.3166 7.8V8.16C94.9966 8.34667 95.5566 8.68667 95.9966 9.18C96.4499 9.66 96.6766 10.3 96.6766 11.1V11.34C96.6766 11.86 96.5832 12.3467 96.3966 12.8C96.2232 13.24 95.9566 13.6267 95.5966 13.96C95.2499 14.28 94.8166 14.5333 94.2966 14.72C93.7899 14.9067 93.2032 15 92.5366 15H86.3966V12.48ZM90.3566 12.48H92.2766C92.8366 12.48 93.2899 12.36 93.6366 12.12C93.9832 11.88 94.1566 11.48 94.1566 10.92V10.8C94.1566 10.24 93.9832 9.84 93.6366 9.6C93.2899 9.36 92.8366 9.24 92.2766 9.24H90.3566V12.48ZM90.3566 6.72H92.2766C92.8366 6.72 93.2899 6.60667 93.6366 6.38C93.9832 6.14 94.1566 5.74 94.1566 5.18V5.06C94.1566 4.5 93.9832 4.10667 93.6366 3.88C93.2899 3.64 92.8366 3.52 92.2766 3.52H90.3566V6.72ZM108.223 12H103.463L102.783 15H100.023L103.363 0.999999H108.323L111.663 15H108.903L108.223 12ZM104.023 9.48H107.643L106.023 2.32H105.663L104.023 9.48ZM115.609 0.999999H118.249V12.48H124.609V15H115.609V0.999999ZM129.855 0.999999H132.495V12.48H138.855V15H129.855V0.999999Z" />
    </mask>
    <path
            d="M8.52 5.28C8.52 4.72 8.3 4.23333 7.86 3.82C7.43333 3.40667 6.82667 3.2 6.04 3.2C5.37333 3.2 4.84667 3.34 4.46 3.62C4.07333 3.88667 3.88 4.25333 3.88 4.72C3.88 4.96 3.92667 5.18 4.02 5.38C4.11333 5.56667 4.27333 5.74 4.5 5.9C4.74 6.04667 5.04667 6.18 5.42 6.3C5.80667 6.42 6.29333 6.53333 6.88 6.64C8.34667 6.90667 9.46667 7.35333 10.24 7.98C11.0133 8.60667 11.4 9.53333 11.4 10.76V11C11.4 11.6533 11.28 12.2467 11.04 12.78C10.8133 13.3 10.48 13.7467 10.04 14.12C9.6 14.4933 9.06667 14.78 8.44 14.98C7.81333 15.18 7.10667 15.28 6.32 15.28C5.4 15.28 4.58667 15.1533 3.88 14.9C3.18667 14.6333 2.60667 14.2733 2.14 13.82C1.67333 13.3533 1.32 12.8133 1.08 12.2C0.84 11.5733 0.72 10.8933 0.72 10.16V9.56H3.36V10.04C3.36 10.88 3.6 11.5533 4.08 12.06C4.57333 12.5533 5.33333 12.8 6.36 12.8C7.16 12.8 7.75333 12.6267 8.14 12.28C8.52667 11.9333 8.72 11.52 8.72 11.04C8.72 10.8133 8.68 10.6 8.6 10.4C8.52 10.1867 8.38 10 8.18 9.84C7.98 9.66667 7.70667 9.51333 7.36 9.38C7.01333 9.24667 6.57333 9.13333 6.04 9.04C5.33333 8.92 4.68667 8.76667 4.1 8.58C3.51333 8.38 3 8.12 2.56 7.8C2.13333 7.48 1.8 7.08 1.56 6.6C1.32 6.12 1.2 5.53333 1.2 4.84V4.72C1.2 4.14667 1.31333 3.62 1.54 3.14C1.78 2.64667 2.10667 2.22 2.52 1.86C2.94667 1.5 3.45333 1.22 4.04 1.02C4.64 0.819999 5.30667 0.719999 6.04 0.719999C6.86667 0.719999 7.6 0.839999 8.24 1.08C8.88 1.30667 9.41333 1.62 9.84 2.02C10.28 2.42 10.6067 2.88 10.82 3.4C11.0467 3.92 11.16 4.46667 11.16 5.04V5.76H8.52V5.28ZM14.6861 0.999999H19.3261L20.1261 11.52V13.56H20.6061V11.52L21.4061 0.999999H26.0461V15H23.6461V5.64L23.8861 2.44H23.4061L22.3661 15H18.4061L17.3261 2.44H16.8461L17.0861 5.64V15H14.6861V0.999999ZM29.9322 0.999999H39.2922V3.52H35.9322V12.48H39.2922V15H29.9322V12.48H33.2922V3.52H29.9322V0.999999ZM44.3783 0.999999H47.0183V12.48H53.3783V15H44.3783V0.999999ZM58.6244 0.999999H67.4644V3.52H61.2644V6.72H67.2244V9.24H61.2644V12.48H67.7044V15H58.6244V0.999999ZM76.0305 10.08H75.4305L71.4105 0.999999H74.2905L77.1705 7.68H77.5305L80.4105 0.999999H83.2905L79.2705 10.08H78.6705V15H76.0305V10.08ZM86.3966 12.48H87.7166V3.52H86.3966V0.999999H92.5366C93.2032 0.999999 93.7899 1.09333 94.2966 1.28C94.8166 1.46667 95.2499 1.72 95.5966 2.04C95.9566 2.36 96.2232 2.74667 96.3966 3.2C96.5832 3.64 96.6766 4.12 96.6766 4.64V4.88C96.6766 5.68 96.4499 6.32 95.9966 6.8C95.5566 7.28 94.9966 7.61333 94.3166 7.8V8.16C94.9966 8.34667 95.5566 8.68667 95.9966 9.18C96.4499 9.66 96.6766 10.3 96.6766 11.1V11.34C96.6766 11.86 96.5832 12.3467 96.3966 12.8C96.2232 13.24 95.9566 13.6267 95.5966 13.96C95.2499 14.28 94.8166 14.5333 94.2966 14.72C93.7899 14.9067 93.2032 15 92.5366 15H86.3966V12.48ZM90.3566 12.48H92.2766C92.8366 12.48 93.2899 12.36 93.6366 12.12C93.9832 11.88 94.1566 11.48 94.1566 10.92V10.8C94.1566 10.24 93.9832 9.84 93.6366 9.6C93.2899 9.36 92.8366 9.24 92.2766 9.24H90.3566V12.48ZM90.3566 6.72H92.2766C92.8366 6.72 93.2899 6.60667 93.6366 6.38C93.9832 6.14 94.1566 5.74 94.1566 5.18V5.06C94.1566 4.5 93.9832 4.10667 93.6366 3.88C93.2899 3.64 92.8366 3.52 92.2766 3.52H90.3566V6.72ZM108.223 12H103.463L102.783 15H100.023L103.363 0.999999H108.323L111.663 15H108.903L108.223 12ZM104.023 9.48H107.643L106.023 2.32H105.663L104.023 9.48ZM115.609 0.999999H118.249V12.48H124.609V15H115.609V0.999999ZM129.855 0.999999H132.495V12.48H138.855V15H129.855V0.999999Z"
            fill="white"
            fill-opacity="0.3"
    />
    <path
            d="M7.86 3.82L7.1642 4.53824L7.16972 4.54359L7.17532 4.54885L7.86 3.82ZM4.46 3.62L5.02773 4.44321L5.0372 4.43669L5.04651 4.42994L4.46 3.62ZM4.02 5.38L3.11382 5.80289L3.11953 5.81513L3.12557 5.82721L4.02 5.38ZM4.5 5.9L3.92332 6.71697L3.95033 6.73604L3.97855 6.75328L4.5 5.9ZM5.42 6.3L5.11398 7.25208L5.1236 7.25506L5.42 6.3ZM6.88 6.64L6.70111 7.62387H6.70112L6.88 6.64ZM10.24 7.98L9.61042 8.75693H9.61042L10.24 7.98ZM11.04 12.78L10.128 12.3696L10.1233 12.3804L11.04 12.78ZM10.04 14.12L10.687 14.8825L10.04 14.12ZM8.44 14.98L8.74404 15.9327L8.44 14.98ZM3.88 14.9L3.52102 15.8333L3.53173 15.8375L3.54254 15.8413L3.88 14.9ZM2.14 13.82L1.43289 14.5271L1.43802 14.5322L1.44321 14.5373L2.14 13.82ZM1.08 12.2L0.146119 12.5577L0.148757 12.5644L1.08 12.2ZM0.72 9.56V8.56H-0.28V9.56H0.72ZM3.36 9.56H4.36V8.56H3.36V9.56ZM4.08 12.06L3.35405 12.7477L3.36334 12.7576L3.37289 12.7671L4.08 12.06ZM8.14 12.28L7.47246 11.5354H7.47246L8.14 12.28ZM8.6 10.4L7.66367 10.7511L7.66749 10.7613L7.67152 10.7714L8.6 10.4ZM8.18 9.84L7.52507 10.5957L7.53994 10.6086L7.55531 10.6209L8.18 9.84ZM7.36 9.38L7.71898 8.44665H7.71898L7.36 9.38ZM6.04 9.04L6.21238 8.05496L6.20742 8.05411L6.04 9.04ZM4.1 8.58L3.77733 9.52651L3.78703 9.52982L3.7968 9.53292L4.1 8.58ZM2.56 7.8L1.96 8.6L1.96588 8.60441L1.97183 8.60874L2.56 7.8ZM1.54 3.14L0.640705 2.7025L0.635751 2.71299L1.54 3.14ZM2.52 1.86L1.87513 1.09571L1.86913 1.10077L1.86322 1.10592L2.52 1.86ZM4.04 1.02L3.72377 0.0712938L3.71733 0.0734892L4.04 1.02ZM8.24 1.08L7.88888 2.01633L7.89749 2.01956L7.90615 2.02263L8.24 1.08ZM9.84 2.02L9.15606 2.74954L9.16165 2.75478L9.16733 2.75994L9.84 2.02ZM10.82 3.4L9.89483 3.77956L9.89896 3.78962L9.9033 3.79958L10.82 3.4ZM11.16 5.76V6.76H12.16V5.76H11.16ZM8.52 5.76H7.52V6.76H8.52V5.76ZM9.52 5.28C9.52 4.42079 9.16836 3.67704 8.54468 3.09115L7.17532 4.54885C7.43164 4.78963 7.52 5.01921 7.52 5.28H9.52ZM8.5558 3.10176C7.88837 2.45519 6.9996 2.2 6.04 2.2V4.2C6.65374 4.2 6.97829 4.35814 7.1642 4.53824L8.5558 3.10176ZM6.04 2.2C5.24392 2.2 4.48651 2.36615 3.87349 2.81006L5.04651 4.42994C5.20682 4.31385 5.50274 4.2 6.04 4.2V2.2ZM3.89227 2.79679C3.23706 3.24865 2.88 3.92199 2.88 4.72H4.88C4.88 4.58467 4.90961 4.52468 5.02773 4.44321L3.89227 2.79679ZM2.88 4.72C2.88 5.09317 2.95344 5.45921 3.11382 5.80289L4.92618 4.95711C4.8999 4.90079 4.88 4.82683 4.88 4.72H2.88ZM3.12557 5.82721C3.31299 6.20205 3.60457 6.49197 3.92332 6.71697L5.07668 5.08303C4.9421 4.98803 4.91368 4.93128 4.91443 4.93279L3.12557 5.82721ZM3.97855 6.75328C4.30685 6.95391 4.69237 7.11651 5.11399 7.25203L5.72601 5.34797C5.40097 5.24349 5.17315 5.13942 5.02145 5.04672L3.97855 6.75328ZM5.1236 7.25506C5.56219 7.39118 6.09142 7.51301 6.70111 7.62387L7.05889 5.65613C6.49525 5.55365 6.05114 5.44882 5.7164 5.34494L5.1236 7.25506ZM6.70112 7.62387C8.07839 7.87428 9.0166 8.27573 9.61042 8.75693L10.8696 7.20307C9.91674 6.43093 8.61494 5.93905 7.05889 5.65613L6.70112 7.62387ZM9.61042 8.75693C10.0955 9.15003 10.4 9.75789 10.4 10.76H12.4C12.4 9.30877 11.9312 8.0633 10.8696 7.20307L9.61042 8.75693ZM10.4 10.76V11H12.4V10.76H10.4ZM10.4 11C10.4 11.5285 10.3036 11.9797 10.1281 12.3696L11.9519 13.1904C12.2564 12.5137 12.4 11.7782 12.4 11H10.4ZM10.1233 12.3804C9.95874 12.758 9.71867 13.0812 9.39302 13.3575L10.687 14.8825C11.2413 14.4121 11.6679 13.842 11.9567 13.1796L10.1233 12.3804ZM9.39302 13.3575C9.06678 13.6343 8.65438 13.8619 8.13596 14.0273L8.74404 15.9327C9.47896 15.6981 10.1332 15.3524 10.687 14.8825L9.39302 13.3575ZM8.13596 14.0273C7.62465 14.1905 7.02306 14.28 6.32 14.28V16.28C7.19027 16.28 8.00202 16.1695 8.74404 15.9327L8.13596 14.0273ZM6.32 14.28C5.48998 14.28 4.79455 14.1655 4.21746 13.9587L3.54254 15.8413C4.37878 16.1411 5.31002 16.28 6.32 16.28V14.28ZM4.23898 13.9667C3.65391 13.7416 3.19381 13.4495 2.83679 13.1027L1.44321 14.5373C2.01953 15.0971 2.71943 15.525 3.52102 15.8333L4.23898 13.9667ZM2.84711 13.1129C2.47779 12.7436 2.20086 12.3202 2.01124 11.8356L0.148757 12.5644C0.439136 13.3065 0.868881 13.9631 1.43289 14.5271L2.84711 13.1129ZM2.01386 11.8424C1.82147 11.34 1.72 10.7824 1.72 10.16H-0.28C-0.28 11.0042 -0.141471 11.8067 0.146143 12.5576L2.01386 11.8424ZM1.72 10.16V9.56H-0.28V10.16H1.72ZM0.72 10.56H3.36V8.56H0.72V10.56ZM2.36 9.56V10.04H4.36V9.56H2.36ZM2.36 10.04C2.36 11.0806 2.66344 12.0188 3.35405 12.7477L4.80595 11.3723C4.53656 11.0879 4.36 10.6794 4.36 10.04H2.36ZM3.37289 12.7671C4.1265 13.5207 5.19264 13.8 6.36 13.8V11.8C5.47402 11.8 5.02016 11.586 4.78711 11.3529L3.37289 12.7671ZM6.36 13.8C7.27825 13.8 8.16034 13.6048 8.80755 13.0246L7.47246 11.5354C7.34633 11.6485 7.04175 11.8 6.36 11.8V13.8ZM8.80754 13.0246C9.38631 12.5057 9.72 11.8293 9.72 11.04H7.72C7.72 11.2107 7.66702 11.361 7.47246 11.5354L8.80754 13.0246ZM9.72 11.04C9.72 10.6929 9.65817 10.3528 9.52848 10.0286L7.67152 10.7714C7.70183 10.8472 7.72 10.9338 7.72 11.04H9.72ZM9.53633 10.0489C9.38548 9.64661 9.12751 9.31738 8.8047 9.05913L7.55531 10.6209C7.63249 10.6826 7.65452 10.7267 7.66367 10.7511L9.53633 10.0489ZM8.83493 9.08431C8.51978 8.81118 8.13359 8.60612 7.71898 8.44665L7.00102 10.3133C7.27974 10.4205 7.44022 10.5222 7.52507 10.5957L8.83493 9.08431ZM7.71898 8.44665C7.29139 8.2822 6.78331 8.15488 6.21238 8.05497L5.86762 10.025C6.36335 10.1118 6.73527 10.2111 7.00102 10.3133L7.71898 8.44665ZM6.20742 8.05411C5.53945 7.94069 4.93892 7.79753 4.4032 7.62707L3.7968 9.53292C4.43442 9.7358 5.12721 9.89931 5.87259 10.0259L6.20742 8.05411ZM4.42267 7.63349C3.91794 7.46142 3.49669 7.24473 3.14817 6.99126L1.97183 8.60874C2.50331 8.99527 3.10873 9.29858 3.77733 9.52651L4.42267 7.63349ZM3.16 7C2.85833 6.77375 2.62545 6.49483 2.45443 6.15279L0.665573 7.04721C0.974551 7.66517 1.40834 8.18625 1.96 8.6L3.16 7ZM2.45443 6.15279C2.3011 5.84613 2.2 5.42189 2.2 4.84H0.2C0.2 5.64478 0.338903 6.39387 0.665573 7.04721L2.45443 6.15279ZM2.2 4.84V4.72H0.2V4.84H2.2ZM2.2 4.72C2.2 4.2823 2.28557 3.90302 2.44425 3.56701L0.635751 2.71299C0.341094 3.33697 0.2 4.01103 0.2 4.72H2.2ZM2.43924 3.57747C2.62055 3.20477 2.8648 2.88581 3.17678 2.61408L1.86322 1.10592C1.34854 1.55419 0.939453 2.08856 0.640765 2.70253L2.43924 3.57747ZM3.16487 2.62429C3.48647 2.35294 3.88084 2.13077 4.36267 1.96651L3.71733 0.0734892C3.02583 0.309228 2.40686 0.647061 1.87513 1.09571L3.16487 2.62429ZM4.35623 1.96868C4.83947 1.8076 5.39736 1.72 6.04 1.72V-0.280001C5.21597 -0.280001 4.44053 -0.167603 3.72377 0.0713158L4.35623 1.96868ZM6.04 1.72C6.77115 1.72 7.38193 1.82622 7.88888 2.01633L8.59112 0.14367C7.81808 -0.146224 6.96219 -0.280001 6.04 -0.280001V1.72ZM7.90615 2.02263C8.43676 2.21055 8.84504 2.45796 9.15606 2.74954L10.5239 1.29046C9.98162 0.782041 9.32324 0.402783 8.57385 0.137372L7.90615 2.02263ZM9.16733 2.75994C9.50396 3.06597 9.74111 3.40486 9.89483 3.77956L11.7452 3.02044C11.4722 2.35514 11.056 1.77403 10.5127 1.28006L9.16733 2.75994ZM9.9033 3.79958C10.0744 4.19215 10.16 4.60266 10.16 5.04H12.16C12.16 4.33068 12.0189 3.64785 11.7367 3.00041L9.9033 3.79958ZM10.16 5.04V5.76H12.16V5.04H10.16ZM11.16 4.76H8.52V6.76H11.16V4.76ZM9.52 5.76V5.28H7.52V5.76H9.52ZM14.6861 0.999999V-9.53674e-07H13.6861V0.999999H14.6861ZM19.3261 0.999999L20.3232 0.924172L20.2529 -9.53674e-07H19.3261V0.999999ZM20.1261 11.52H21.1261V11.482L21.1232 11.4442L20.1261 11.52ZM20.1261 13.56H19.1261V14.56H20.1261V13.56ZM20.6061 13.56V14.56H21.6061V13.56H20.6061ZM20.6061 11.52L19.609 11.4442L19.6061 11.482V11.52H20.6061ZM21.4061 0.999999V-9.53674e-07H20.4793L20.409 0.924172L21.4061 0.999999ZM26.0461 0.999999H27.0461V-9.53674e-07H26.0461V0.999999ZM26.0461 15V16H27.0461V15H26.0461ZM23.6461 15H22.6461V16H23.6461V15ZM23.6461 5.64L22.6489 5.56521L22.6461 5.60255V5.64H23.6461ZM23.8861 2.44L24.8833 2.51479L24.9639 1.44H23.8861V2.44ZM23.4061 2.44V1.44H22.4855L22.4095 2.35748L23.4061 2.44ZM22.3661 15V16H23.2867L23.3627 15.0825L22.3661 15ZM18.4061 15L17.4098 15.0857L17.4884 16H18.4061V15ZM17.3261 2.44L18.3224 2.35433L18.2438 1.44H17.3261V2.44ZM16.8461 2.44V1.44H15.7683L15.8489 2.51479L16.8461 2.44ZM17.0861 5.64H18.0861V5.60255L18.0833 5.56521L17.0861 5.64ZM17.0861 15V16H18.0861V15H17.0861ZM14.6861 15H13.6861V16H14.6861V15ZM14.6861 2H19.3261V-9.53674e-07H14.6861V2ZM18.329 1.07583L19.129 11.5958L21.1232 11.4442L20.3232 0.924172L18.329 1.07583ZM19.1261 11.52V13.56H21.1261V11.52H19.1261ZM20.1261 14.56H20.6061V12.56H20.1261V14.56ZM21.6061 13.56V11.52H19.6061V13.56H21.6061ZM21.6032 11.5958L22.4032 1.07583L20.409 0.924172L19.609 11.4442L21.6032 11.5958ZM21.4061 2H26.0461V-9.53674e-07H21.4061V2ZM25.0461 0.999999V15H27.0461V0.999999H25.0461ZM26.0461 14H23.6461V16H26.0461V14ZM24.6461 15V5.64H22.6461V15H24.6461ZM24.6433 5.71479L24.8833 2.51479L22.8889 2.36521L22.6489 5.56521L24.6433 5.71479ZM23.8861 1.44H23.4061V3.44H23.8861V1.44ZM22.4095 2.35748L21.3695 14.9175L23.3627 15.0825L24.4027 2.52252L22.4095 2.35748ZM22.3661 14H18.4061V16H22.3661V14ZM19.4024 14.9143L18.3224 2.35433L16.3298 2.52567L17.4098 15.0857L19.4024 14.9143ZM17.3261 1.44H16.8461V3.44H17.3261V1.44ZM15.8489 2.51479L16.0889 5.71479L18.0833 5.56521L17.8433 2.36521L15.8489 2.51479ZM16.0861 5.64V15H18.0861V5.64H16.0861ZM17.0861 14H14.6861V16H17.0861V14ZM15.6861 15V0.999999H13.6861V15H15.6861ZM29.9322 0.999999V-9.53674e-07H28.9322V0.999999H29.9322ZM39.2922 0.999999H40.2922V-9.53674e-07H39.2922V0.999999ZM39.2922 3.52V4.52H40.2922V3.52H39.2922ZM35.9322 3.52V2.52H34.9322V3.52H35.9322ZM35.9322 12.48H34.9322V13.48H35.9322V12.48ZM39.2922 12.48H40.2922V11.48H39.2922V12.48ZM39.2922 15V16H40.2922V15H39.2922ZM29.9322 15H28.9322V16H29.9322V15ZM29.9322 12.48V11.48H28.9322V12.48H29.9322ZM33.2922 12.48V13.48H34.2922V12.48H33.2922ZM33.2922 3.52H34.2922V2.52H33.2922V3.52ZM29.9322 3.52H28.9322V4.52H29.9322V3.52ZM29.9322 2H39.2922V-9.53674e-07H29.9322V2ZM38.2922 0.999999V3.52H40.2922V0.999999H38.2922ZM39.2922 2.52H35.9322V4.52H39.2922V2.52ZM34.9322 3.52V12.48H36.9322V3.52H34.9322ZM35.9322 13.48H39.2922V11.48H35.9322V13.48ZM38.2922 12.48V15H40.2922V12.48H38.2922ZM39.2922 14H29.9322V16H39.2922V14ZM30.9322 15V12.48H28.9322V15H30.9322ZM29.9322 13.48H33.2922V11.48H29.9322V13.48ZM34.2922 12.48V3.52H32.2922V12.48H34.2922ZM33.2922 2.52H29.9322V4.52H33.2922V2.52ZM30.9322 3.52V0.999999H28.9322V3.52H30.9322ZM44.3783 0.999999V-9.53674e-07H43.3783V0.999999H44.3783ZM47.0183 0.999999H48.0183V-9.53674e-07H47.0183V0.999999ZM47.0183 12.48H46.0183V13.48H47.0183V12.48ZM53.3783 12.48H54.3783V11.48H53.3783V12.48ZM53.3783 15V16H54.3783V15H53.3783ZM44.3783 15H43.3783V16H44.3783V15ZM44.3783 2H47.0183V-9.53674e-07H44.3783V2ZM46.0183 0.999999V12.48H48.0183V0.999999H46.0183ZM47.0183 13.48H53.3783V11.48H47.0183V13.48ZM52.3783 12.48V15H54.3783V12.48H52.3783ZM53.3783 14H44.3783V16H53.3783V14ZM45.3783 15V0.999999H43.3783V15H45.3783ZM58.6244 0.999999V-9.53674e-07H57.6244V0.999999H58.6244ZM67.4644 0.999999H68.4644V-9.53674e-07H67.4644V0.999999ZM67.4644 3.52V4.52H68.4644V3.52H67.4644ZM61.2644 3.52V2.52H60.2644V3.52H61.2644ZM61.2644 6.72H60.2644V7.72H61.2644V6.72ZM67.2244 6.72H68.2244V5.72H67.2244V6.72ZM67.2244 9.24V10.24H68.2244V9.24H67.2244ZM61.2644 9.24V8.24H60.2644V9.24H61.2644ZM61.2644 12.48H60.2644V13.48H61.2644V12.48ZM67.7044 12.48H68.7044V11.48H67.7044V12.48ZM67.7044 15V16H68.7044V15H67.7044ZM58.6244 15H57.6244V16H58.6244V15ZM58.6244 2H67.4644V-9.53674e-07H58.6244V2ZM66.4644 0.999999V3.52H68.4644V0.999999H66.4644ZM67.4644 2.52H61.2644V4.52H67.4644V2.52ZM60.2644 3.52V6.72H62.2644V3.52H60.2644ZM61.2644 7.72H67.2244V5.72H61.2644V7.72ZM66.2244 6.72V9.24H68.2244V6.72H66.2244ZM67.2244 8.24H61.2644V10.24H67.2244V8.24ZM60.2644 9.24V12.48H62.2644V9.24H60.2644ZM61.2644 13.48H67.7044V11.48H61.2644V13.48ZM66.7044 12.48V15H68.7044V12.48H66.7044ZM67.7044 14H58.6244V16H67.7044V14ZM59.6244 15V0.999999H57.6244V15H59.6244ZM76.0305 10.08H77.0305V9.08H76.0305V10.08ZM75.4305 10.08L74.5161 10.4848L74.7796 11.08H75.4305V10.08ZM71.4105 0.999999V-9.53674e-07H69.8741L70.4961 1.40483L71.4105 0.999999ZM74.2905 0.999999L75.2088 0.60409L74.9483 -9.53674e-07H74.2905V0.999999ZM77.1705 7.68L76.2522 8.07591L76.5126 8.68H77.1705V7.68ZM77.5305 7.68V8.68H78.1883L78.4488 8.07591L77.5305 7.68ZM80.4105 0.999999V-9.53674e-07H79.7526L79.4922 0.60409L80.4105 0.999999ZM83.2905 0.999999L84.2049 1.40483L84.8268 -9.53674e-07H83.2905V0.999999ZM79.2705 10.08V11.08H79.9214L80.1849 10.4848L79.2705 10.08ZM78.6705 10.08V9.08H77.6705V10.08H78.6705ZM78.6705 15V16H79.6705V15H78.6705ZM76.0305 15H75.0305V16H76.0305V15ZM76.0305 9.08H75.4305V11.08H76.0305V9.08ZM76.3449 9.67517L72.3249 0.595169L70.4961 1.40483L74.5161 10.4848L76.3449 9.67517ZM71.4105 2H74.2905V-9.53674e-07H71.4105V2ZM73.3722 1.39591L76.2522 8.07591L78.0888 7.28409L75.2088 0.60409L73.3722 1.39591ZM77.1705 8.68H77.5305V6.68H77.1705V8.68ZM78.4488 8.07591L81.3288 1.39591L79.4922 0.60409L76.6122 7.28409L78.4488 8.07591ZM80.4105 2H83.2905V-9.53674e-07H80.4105V2ZM82.3761 0.595169L78.3561 9.67517L80.1849 10.4848L84.2049 1.40483L82.3761 0.595169ZM79.2705 9.08H78.6705V11.08H79.2705V9.08ZM77.6705 10.08V15H79.6705V10.08H77.6705ZM78.6705 14H76.0305V16H78.6705V14ZM77.0305 15V10.08H75.0305V15H77.0305ZM86.3966 12.48V11.48H85.3966V12.48H86.3966ZM87.7166 12.48V13.48H88.7166V12.48H87.7166ZM87.7166 3.52H88.7166V2.52H87.7166V3.52ZM86.3966 3.52H85.3966V4.52H86.3966V3.52ZM86.3966 0.999999V-9.53674e-07H85.3966V0.999999H86.3966ZM94.2966 1.28L93.9508 2.21838L93.9587 2.22119L94.2966 1.28ZM95.5966 2.04L94.9183 2.7748L94.9252 2.78117L94.9322 2.78741L95.5966 2.04ZM96.3966 3.2L95.4625 3.55714L95.4689 3.57396L95.476 3.59055L96.3966 3.2ZM95.9966 6.8L95.2695 6.11338L95.2644 6.11879L95.2594 6.12428L95.9966 6.8ZM94.3166 7.8L94.0518 6.83567L93.3166 7.03752V7.8H94.3166ZM94.3166 8.16H93.3166V8.92248L94.0518 9.12433L94.3166 8.16ZM95.9966 9.18L95.2503 9.84562L95.2598 9.85626L95.2695 9.86662L95.9966 9.18ZM96.3966 12.8L95.4719 12.4193L95.469 12.4263L95.4662 12.4335L96.3966 12.8ZM95.5966 13.96L96.2748 14.6948L96.276 14.6938L95.5966 13.96ZM94.2966 14.72L93.9587 13.7788L93.9509 13.7817L94.2966 14.72ZM86.3966 15H85.3966V16H86.3966V15ZM90.3566 12.48H89.3566V13.48H90.3566V12.48ZM93.6366 12.12L93.0674 11.2978L93.6366 12.12ZM90.3566 9.24V8.24H89.3566V9.24H90.3566ZM90.3566 6.72H89.3566V7.72H90.3566V6.72ZM93.6366 6.38L94.1838 7.21697L94.1949 7.20973L94.2058 7.20219L93.6366 6.38ZM93.6366 3.88L93.0674 4.70219L93.0782 4.70973L93.0893 4.71697L93.6366 3.88ZM90.3566 3.52V2.52H89.3566V3.52H90.3566ZM86.3966 13.48H87.7166V11.48H86.3966V13.48ZM88.7166 12.48V3.52H86.7166V12.48H88.7166ZM87.7166 2.52H86.3966V4.52H87.7166V2.52ZM87.3966 3.52V0.999999H85.3966V3.52H87.3966ZM86.3966 2H92.5366V-9.53674e-07H86.3966V2ZM92.5366 2C93.112 2 93.5774 2.08077 93.9509 2.21834L94.6423 0.341656C94.0024 0.105899 93.2945 -9.53674e-07 92.5366 -9.53674e-07V2ZM93.9587 2.22119C94.3738 2.37022 94.6855 2.55991 94.9183 2.7748L96.2748 1.3052C95.8143 0.880094 95.2593 0.563112 94.6344 0.338804L93.9587 2.22119ZM94.9322 2.78741C95.1713 2.99999 95.346 3.25245 95.4625 3.55714L97.3306 2.84286C97.1004 2.24088 96.7418 1.72001 96.2609 1.29259L94.9322 2.78741ZM95.476 3.59055C95.6058 3.89651 95.6766 4.24229 95.6766 4.64H97.6766C97.6766 3.99771 97.5607 3.38349 97.3171 2.80945L95.476 3.59055ZM95.6766 4.64V4.88H97.6766V4.64H95.6766ZM95.6766 4.88C95.6766 5.48184 95.5119 5.85678 95.2695 6.11338L96.7236 7.48662C97.3879 6.78322 97.6766 5.87816 97.6766 4.88H95.6766ZM95.2594 6.12428C94.9571 6.45403 94.566 6.69453 94.0518 6.83567L94.5813 8.76433C95.4271 8.53213 96.156 8.10596 96.7337 7.47572L95.2594 6.12428ZM93.3166 7.8V8.16H95.3166V7.8H93.3166ZM94.0518 9.12433C94.5589 9.26351 94.9473 9.50594 95.2503 9.84562L96.7429 8.51439C96.1658 7.86739 95.4343 7.42982 94.5813 7.19567L94.0518 9.12433ZM95.2695 9.86662C95.5119 10.1232 95.6766 10.4982 95.6766 11.1H97.6766C97.6766 10.1018 97.3879 9.19678 96.7236 8.49338L95.2695 9.86662ZM95.6766 11.1V11.34H97.6766V11.1H95.6766ZM95.6766 11.34C95.6766 11.7374 95.6059 12.0939 95.4719 12.4193L97.3212 13.1807C97.5606 12.5994 97.6766 11.9826 97.6766 11.34H95.6766ZM95.4662 12.4335C95.3499 12.7285 95.1712 12.991 94.9172 13.2262L96.276 14.6938C96.7419 14.2623 97.0965 13.7515 97.327 13.1665L95.4662 12.4335ZM94.9183 13.2252C94.6855 13.4401 94.3738 13.6298 93.9587 13.7788L94.6344 15.6612C95.2593 15.4369 95.8143 15.1199 96.2748 14.6948L94.9183 13.2252ZM93.9509 13.7817C93.5774 13.9192 93.112 14 92.5366 14V16C93.2945 16 94.0024 15.8941 94.6423 15.6583L93.9509 13.7817ZM92.5366 14H86.3966V16H92.5366V14ZM87.3966 15V12.48H85.3966V15H87.3966ZM90.3566 13.48H92.2766V11.48H90.3566V13.48ZM92.2766 13.48C92.9742 13.48 93.6449 13.3305 94.2058 12.9422L93.0674 11.2978C92.9349 11.3895 92.6989 11.48 92.2766 11.48V13.48ZM94.2058 12.9422C94.907 12.4567 95.1566 11.6895 95.1566 10.92H93.1566C93.1566 11.1006 93.1282 11.1981 93.109 11.2424C93.0939 11.2772 93.0818 11.2878 93.0674 11.2978L94.2058 12.9422ZM95.1566 10.92V10.8H93.1566V10.92H95.1566ZM95.1566 10.8C95.1566 10.0305 94.907 9.26326 94.2058 8.77781L93.0674 10.4222C93.0818 10.4322 93.0939 10.4428 93.109 10.4776C93.1282 10.5219 93.1566 10.6194 93.1566 10.8H95.1566ZM94.2058 8.77781C93.6449 8.38952 92.9742 8.24 92.2766 8.24V10.24C92.6989 10.24 92.9349 10.3305 93.0674 10.4222L94.2058 8.77781ZM92.2766 8.24H90.3566V10.24H92.2766V8.24ZM89.3566 9.24V12.48H91.3566V9.24H89.3566ZM90.3566 7.72H92.2766V5.72H90.3566V7.72ZM92.2766 7.72C92.9643 7.72 93.6265 7.58139 94.1838 7.21697L93.0893 5.54303C92.9533 5.63194 92.7088 5.72 92.2766 5.72V7.72ZM94.2058 7.20219C94.907 6.71674 95.1566 5.94948 95.1566 5.18H93.1566C93.1566 5.36057 93.1282 5.45815 93.109 5.50239C93.0939 5.53724 93.0818 5.54778 93.0674 5.55781L94.2058 7.20219ZM95.1566 5.18V5.06H93.1566V5.18H95.1566ZM95.1566 5.06C95.1566 4.29395 94.9077 3.51635 94.1838 3.04303L93.0893 4.71697C93.0943 4.72023 93.0998 4.72165 93.1115 4.74826C93.1279 4.78561 93.1566 4.87866 93.1566 5.06H95.1566ZM94.2058 3.05781C93.6449 2.66952 92.9742 2.52 92.2766 2.52V4.52C92.6989 4.52 92.9349 4.61048 93.0674 4.70219L94.2058 3.05781ZM92.2766 2.52H90.3566V4.52H92.2766V2.52ZM89.3566 3.52V6.72H91.3566V3.52H89.3566ZM108.223 12L109.198 11.7789L109.021 11H108.223V12ZM103.463 12V11H102.664L102.487 11.7789L103.463 12ZM102.783 15V16H103.581L103.758 15.2211L102.783 15ZM100.023 15L99.05 14.7679L98.756 16H100.023V15ZM103.363 0.999999V-9.53674e-07H102.573L102.39 0.767941L103.363 0.999999ZM108.323 0.999999L109.295 0.767941L109.112 -9.53674e-07H108.323V0.999999ZM111.663 15V16H112.929L112.635 14.7679L111.663 15ZM108.903 15L107.927 15.2211L108.104 16H108.903V15ZM104.023 9.48L103.048 9.25673L102.768 10.48H104.023V9.48ZM107.643 9.48V10.48H108.894L108.618 9.25932L107.643 9.48ZM106.023 2.32L106.998 2.09932L106.822 1.32H106.023V2.32ZM105.663 2.32V1.32H104.866L104.688 2.09673L105.663 2.32ZM108.223 11H103.463V13H108.223V11ZM102.487 11.7789L101.807 14.7789L103.758 15.2211L104.438 12.2211L102.487 11.7789ZM102.783 14H100.023V16H102.783V14ZM100.995 15.2321L104.335 1.23206L102.39 0.767941L99.05 14.7679L100.995 15.2321ZM103.363 2H108.323V-9.53674e-07H103.363V2ZM107.35 1.23206L110.69 15.2321L112.635 14.7679L109.295 0.767941L107.35 1.23206ZM111.663 14H108.903V16H111.663V14ZM109.878 14.7789L109.198 11.7789L107.247 12.2211L107.927 15.2211L109.878 14.7789ZM104.023 10.48H107.643V8.48H104.023V10.48ZM108.618 9.25932L106.998 2.09932L105.047 2.54068L106.667 9.70068L108.618 9.25932ZM106.023 1.32H105.663V3.32H106.023V1.32ZM104.688 2.09673L103.048 9.25673L104.997 9.70327L106.637 2.54327L104.688 2.09673ZM115.609 0.999999V-9.53674e-07H114.609V0.999999H115.609ZM118.249 0.999999H119.249V-9.53674e-07H118.249V0.999999ZM118.249 12.48H117.249V13.48H118.249V12.48ZM124.609 12.48H125.609V11.48H124.609V12.48ZM124.609 15V16H125.609V15H124.609ZM115.609 15H114.609V16H115.609V15ZM115.609 2H118.249V-9.53674e-07H115.609V2ZM117.249 0.999999V12.48H119.249V0.999999H117.249ZM118.249 13.48H124.609V11.48H118.249V13.48ZM123.609 12.48V15H125.609V12.48H123.609ZM124.609 14H115.609V16H124.609V14ZM116.609 15V0.999999H114.609V15H116.609ZM129.855 0.999999V-9.53674e-07H128.855V0.999999H129.855ZM132.495 0.999999H133.495V-9.53674e-07H132.495V0.999999ZM132.495 12.48H131.495V13.48H132.495V12.48ZM138.855 12.48H139.855V11.48H138.855V12.48ZM138.855 15V16H139.855V15H138.855ZM129.855 15H128.855V16H129.855V15ZM129.855 2H132.495V-9.53674e-07H129.855V2ZM131.495 0.999999V12.48H133.495V0.999999H131.495ZM132.495 13.48H138.855V11.48H132.495V13.48ZM137.855 12.48V15H139.855V12.48H137.855ZM138.855 14H129.855V16H138.855V14ZM130.855 15V0.999999H128.855V15H130.855Z"
            fill="#FDF040"
            mask="url(#path-1-inside-1_387_937)"
    />
</svg>